<svg width="161" height="161" viewBox="0 0 161 161" fill="none" xmlns="http://www.w3.org/2000/svg">
    <mask id="mask0_368_5698" style="mask-type:alpha" maskUnits="userSpaceOnUse" x="0" y="0" width="161" height="161">
        <circle cx="80.1786" cy="80.5986" r="80" fill="white"/>
    </mask>
    <g mask="url(#mask0_368_5698)">
        <g clip-path="url(#clip0_368_5698)">
            <path d="M47.4746 68.4795L50.7595 69.4287V84.4995L39.4151 81.2203C35.5641 80.108 33.3521 76.0994 34.4664 72.2611C35.1141 70.0529 36.7068 68.3755 38.6856 67.5716C40.1445 66.9711 41.813 66.8494 43.4472 67.321L47.4734 68.4807L47.4746 68.4795Z" fill="#FF757C"/>
            <path d="M58.4637 71.6665V83.4155L56.3156 86.1131L54.4955 85.5835L50.7606 84.4995V69.4288L56.9231 71.2173L58.4637 71.6665Z" fill="#1A1E24"/>
            <path d="M47.4746 85.9559L50.7595 86.9051V101.976L39.4151 98.6967C35.5641 97.5844 33.3521 93.5758 34.4664 89.7375C35.1141 87.5293 36.7068 85.8519 38.6856 85.048C40.1445 84.4475 41.813 84.3258 43.4472 84.7974L47.4734 85.9571L47.4746 85.9559Z" fill="#FF757C"/>
            <path d="M58.4637 89.1429V100.892L56.3156 103.59L54.4955 103.06L50.7606 101.976V86.9052L56.9231 88.6937L58.4637 89.1429Z" fill="#1A1E24"/>
            <path d="M47.4746 85.9476L50.7595 86.8969V101.968L39.4151 98.6885C35.5641 97.5761 33.3521 93.5676 34.4664 89.7292C35.1141 87.521 36.7068 85.8436 38.6856 85.0398C40.1445 84.4393 41.813 84.3175 43.4472 84.7892L47.4734 85.9488L47.4746 85.9476Z" fill="#FF757C"/>
            <path d="M47.4746 103.424L50.7595 104.373V119.444L39.4151 116.165C35.5641 115.052 33.3521 111.044 34.4664 107.206C35.1141 104.997 36.7068 103.32 38.6856 102.516C40.1445 101.916 41.813 101.794 43.4472 102.266L47.4734 103.425L47.4746 103.424Z" fill="#FF757C"/>
            <path d="M58.4637 106.61V118.36L56.3156 121.058L54.4955 120.528L50.7606 119.444V104.373L56.9231 106.162L58.4637 106.61Z" fill="#1A1E24"/>
            <path d="M110.208 13.7169H60.5988C57.1091 13.7169 54.2848 16.5363 54.2848 20.02V130.051C54.2848 133.535 57.1091 136.354 60.5988 136.354H110.208C113.692 136.354 116.516 133.535 116.516 130.051V20.0211C116.516 16.5374 113.692 13.7181 110.208 13.7181V13.7169Z" fill="white"/>
            <path d="M54.2848 20.0211V112.035H116.516V20.0211C116.516 16.5374 113.692 13.7181 110.208 13.7181H60.5988C57.1091 13.7181 54.2848 16.5374 54.2848 20.0211Z" fill="#E4E8F0"/>
            <path d="M54.2848 112.033V130.051C54.2848 133.535 57.1091 136.354 60.5988 136.354H110.208C113.692 136.354 116.516 133.535 116.516 130.051V112.033H54.2848Z" fill="white"/>
            <path d="M108.942 118.468H61.8611V129.089H108.942V118.468Z" fill="#FFB703"/>
            <path d="M94.6002 122.7L97.1367 123.772V123.786L94.6002 124.857V125.488L97.9111 124.013V123.545L94.6002 122.068V122.7Z" fill="#1A1E24"/>
            <path d="M98.5671 122.068V122.7L101.105 123.772V123.786L98.5671 124.857V125.488L101.879 124.013V123.545L98.5671 122.068Z" fill="#1A1E24"/>
            <path d="M67.4091 53.1841V64.6435H56.8936V65.8091H67.4091V78.771H56.8936V79.9365H67.4091V107.182H72.0771V93.428H86.7076L90.4425 89.0353L94.8607 92.1868L81.2344 107.566H82.7927L103.019 84.7359L113.908 94.0569V87.917L107.319 82.2724V65.8103H113.908V64.6447H107.319V43.9648H113.908V42.7992H107.319L107.325 24.6881H102.657L102.651 42.7992H92.1004V24.6869H88.5988V42.7981H77.5575L61.4976 24.6869H59.9393L82.5062 50.1331L72.0783 56.0106V50.8199L56.8936 39.7399V45.5122L67.4091 53.1841ZM88.5988 46.7002L83.5447 49.5491L78.5901 43.9624H88.5976V46.7002H88.5988ZM102.651 64.6424H84.987V52.7467L92.1004 48.7394V43.9624H102.651V64.6424ZM72.0783 79.9342H89.7664V88.0317L86.1653 92.2613H72.0783V79.9342ZM72.0783 65.8079H102.651V83.3895L95.6375 91.312L90.934 87.9454V78.7698H72.0795V65.8079H72.0783ZM72.0783 60.0226L83.8194 53.4052V64.6424H72.0783V60.0226Z" fill="white"/>
            <path d="M57.9202 107.181H63.8068V81.7641H57.9202V107.181Z" fill="#CACFDD"/>
            <path d="M95.383 105.868L106.667 93.1093L102.734 89.6427L91.4495 102.402L95.383 105.868Z" fill="#CACFDD"/>
            <path d="M93.2384 81.6365H99.7087V68.3578H93.2384V81.6365Z" fill="#CACFDD"/>
            <path d="M75.2767 75.2648H90.3478V68.3589H75.2767V75.2648Z" fill="#CACFDD"/>
            <path d="M57.9202 76.9777H63.8068V68.3577H57.9202V76.9777Z" fill="#CACFDD"/>
            <path d="M75.2756 107.182H78.3011V95.9081H75.2756V107.182Z" fill="#CACFDD"/>
            <path d="M92.0234 60.2106H88.0612V62.8727H99.1782V48.4308L92.0234 52.1533V60.2106Z" fill="#CACFDD"/>
            <path d="M75.6545 60.6646V62.8728H81.3267V57.7117L75.6545 60.6646Z" fill="#CACFDD"/>
            <path d="M74.1731 51.4323H76.9512V46.0371H74.1731V51.4323Z" fill="#CACFDD"/>
            <path d="M64.6195 40.9361L69.1331 46.0379L72.3426 43.2083L67.829 38.1065L64.6195 40.9361Z" fill="#CACFDD"/>
            <path d="M59.8455 35.5406L61.8029 37.7531L65.0124 34.9235L63.055 32.711L59.8455 35.5406Z" fill="#CACFDD"/>
            <path d="M94.3042 41.668H99.1771V38.4763H94.3042V41.668Z" fill="#CACFDD"/>
            <path d="M94.3042 35.7408H99.1771V28.6742H94.3042V35.7408Z" fill="#CACFDD"/>
            <path d="M84.4008 44.8786C85.1528 44.8786 85.7615 45.4874 85.7615 46.238C85.7615 46.9887 85.1516 47.5963 84.4008 47.5963C83.6501 47.5963 83.0402 46.9875 83.0402 46.238C83.0402 45.4886 83.6501 44.8786 84.4008 44.8786Z" fill="#CACFDD"/>
            <path d="M90.7232 91.487C91.4751 91.487 92.0838 92.0958 92.0838 92.8453C92.0838 93.5947 91.4739 94.2035 90.7232 94.2035C89.9724 94.2035 89.3625 93.5947 89.3625 92.8453C89.3625 92.0958 89.9724 91.487 90.7232 91.487Z" fill="#CACFDD"/>
            <path d="M110.328 61.4625H112.574V46.874H110.328V61.4625Z" fill="#CACFDD"/>
            <path d="M110.328 28.6754H112.574V24.6857H110.328V28.6754Z" fill="#CACFDD"/>
            <path d="M78.4906 41.0604H85.7615V24.6857H78.4906V41.0604Z" fill="#CACFDD"/>
            <path d="M104.984 107.181H112.572V99.6058H104.984V107.181Z" fill="#CACFDD"/>
            <path d="M69.8544 29.7771H74.9547V24.6857H69.8544V29.7771Z" fill="#CACFDD"/>
            <path d="M110.328 75.2648H112.574V69.2112H110.328V75.2648Z" fill="#CACFDD"/>
            <path d="M57.9202 57.0083H63.8068V54.1677H57.9202V57.0083Z" fill="#CACFDD"/>
            <path d="M89.7628 47.2594V32.873H90.9304V47.9332L70.4382 59.6716V92.2636H80.2491V93.428H69.2718V58.9966L89.7628 47.2594Z" fill="#2EA964"/>
            <path d="M90.3656 31.1082C91.3425 31.1082 92.1336 31.899 92.1336 32.873C92.1336 33.8471 91.3413 34.6379 90.3656 34.6379C89.3898 34.6379 88.5976 33.8471 88.5976 32.873C88.5976 31.899 89.3898 31.1082 90.3656 31.1082Z" fill="white"/>
            <path d="M90.3656 31.7429C90.9908 31.7429 91.4977 32.2489 91.4977 32.873C91.4977 33.4972 90.9908 34.0031 90.3656 34.0031C89.7403 34.0031 89.2335 33.4972 89.2335 32.873C89.2335 32.2489 89.7403 31.7429 90.3656 31.7429Z" fill="#2EA964"/>
            <path d="M78.6422 92.2625H82.0621C81.875 91.4988 81.1811 90.9279 80.3522 90.9279C79.5232 90.9279 78.8293 91.4988 78.6422 92.2625Z" fill="white"/>
            <path d="M78.5842 92.6928C78.5842 92.9552 78.6422 93.2058 78.7476 93.4269C79.0223 94.0392 79.6405 94.4577 80.3521 94.4577C81.0638 94.4577 81.6832 94.038 81.9567 93.4269C82.0621 93.2058 82.1201 92.9552 82.1201 92.6928C82.1201 92.5474 82.1024 92.402 82.0621 92.2613H78.6422C78.6007 92.4008 78.5842 92.5474 78.5842 92.6928Z" fill="white"/>
            <path d="M80.3545 91.5638C80.9798 91.5638 81.4866 92.0698 81.4866 92.6939C81.4866 93.3181 80.9798 93.824 80.3545 93.824C79.7293 93.824 79.2225 93.3181 79.2225 92.6939C79.2225 92.0698 79.7293 91.5638 80.3545 91.5638Z" fill="#2EA964"/>
            <path d="M80.0893 81.5514C80.1769 81.5466 80.2657 81.5431 80.3557 81.5431C80.4457 81.5431 80.5333 81.5455 80.6221 81.5514C83.7342 81.731 85.392 85.3294 83.6335 87.8981L80.3557 92.6869L77.0779 87.8981C75.3194 85.3294 76.9772 81.731 80.0893 81.5514Z" fill="#FFB703"/>
            <path d="M101.091 26.3525C102.235 27.79 101.993 29.8811 100.554 31.0219C99.1142 32.1638 97.0194 31.9238 95.8767 30.4864C94.7328 29.0489 94.9732 26.9578 96.4143 25.817C97.8543 24.6763 99.9479 24.9151 101.092 26.3537L101.091 26.3525Z" fill="white"/>
            <path d="M99.0882 27.9401L101.1 29.0052L96.5351 29.9639L98.5056 25.7426L99.0882 27.9401Z" fill="#2EA964"/>
            <path d="M110.208 12.5986H60.5988C56.5028 12.5986 53.1646 15.9251 53.1646 20.0152V130.052C53.1646 134.141 56.5028 137.474 60.5988 137.474H110.208C110.353 137.474 110.499 137.468 110.64 137.456C112.549 137.351 114.263 136.518 115.519 135.237C116.826 133.897 117.637 132.068 117.637 130.052V20.0152C117.637 15.9251 114.305 12.5986 110.209 12.5986H110.208ZM55.405 130.051V20.0152C55.405 17.1604 57.7331 14.8364 60.5988 14.8364H110.208C113.073 14.8364 115.401 17.1604 115.401 20.0152V130.052C115.401 132.913 113.073 135.237 110.208 135.237H60.5988C57.7331 135.237 55.405 132.913 55.405 130.052V130.051Z" fill="#1A1E24"/>
            <path d="M83.6667 78.7698C83.7188 79.8302 84.1747 80.7853 84.8745 81.4899C85.6395 82.2476 86.6899 82.7252 87.8385 82.7193L91.9524 82.7949V78.7698H83.6655H83.6667Z" fill="white"/>
            <path d="M108.957 170.575H152.666L147.648 143.177C147.63 143.16 147.612 143.148 147.596 143.137H147.591L147.597 143.136L136.55 82.5219L117.636 67.0327V89.4952L112.032 83.4049C109.322 80.4591 105.499 78.7805 101.493 78.7781L91.9535 78.771V82.7961L87.8397 82.7205C86.6898 82.7264 85.6395 82.2488 84.8757 81.4911C84.1758 80.7865 83.7199 79.8302 83.6678 78.771H78.7546V81.5384C78.7546 83.3033 79.1928 84.9748 79.9743 86.4489C81.4688 89.2564 84.2113 91.331 87.5377 91.8783L101.082 94.1326L108.832 105.999V131.316C108.832 133.401 109.421 135.429 110.506 137.177C110.562 137.273 110.624 137.363 110.686 137.452C110.671 137.452 110.655 137.456 110.64 137.457C110.5 137.469 110.354 137.475 110.208 137.475H88.9315L92.2401 140.662L108.958 156.742V170.578L108.957 170.575Z" fill="#FF757C"/>
            <path d="M117.638 89.494L125.249 97.7628L129.623 87.4631V83.7016L117.638 89.494Z" fill="#1A1E24"/>
            <path d="M113.534 140.659H92.2401L87.7698 136.354L110.692 137.461C111.071 138.049 111.515 138.597 112.011 139.104L113.254 140.373L113.535 140.658L113.534 140.659Z" fill="#1A1E24"/>
            <path d="M119.186 156.737H108.957V158.852H119.186V156.737Z" fill="#1A1E24"/>
            <path d="M159.87 207.217V166.567C159.87 162.951 157.906 159.619 154.74 157.864L149.84 155.145L92.1347 176.925L108.958 207.217H159.871H159.87Z" fill="#53578A"/>
        </g>
    </g>
    <defs>
        <clipPath id="clip0_368_5698">
            <rect width="125.691" height="194.619" fill="white" transform="translate(34.1786 12.5986)"/>
        </clipPath>
    </defs>
</svg>
